<svg xmlns="http://www.w3.org/2000/svg" width="109.341" height="133.89" viewBox="0 0 109.341 133.89"><g transform="translate(-828.095 -1044)"><path d="M919.589,1113.179a17.857,17.857,0,0,0-17.7,15.612h-24.7v-13.662a8.983,8.983,0,0,0,5.587-4.184l28.831-48.758a9.084,9.084,0,0,0-7.822-13.718h-5.068A7.792,7.792,0,0,0,891.7,1044c-3.565,0-12.282,2.734-12.282,7.813s8.717,7.813,12.282,7.813a7.8,7.8,0,0,0,7.693-6.7h4.4a4.631,4.631,0,0,1,3.975,7l-28.828,48.761a4.634,4.634,0,0,1-7.978-.022l-29.637-48.739a4.633,4.633,0,0,1,3.978-7h5.219a7.814,7.814,0,0,0,7.7,6.7c3.562,0,12.268-2.747,12.268-7.813S861.785,1044,858.223,1044a7.782,7.782,0,0,0-7.029,4.469H845.3a9.077,9.077,0,0,0-7.8,13.737l29.637,48.75a9.008,9.008,0,0,0,5.59,4.173v13.662H852.644a24.549,24.549,0,1,0,24.55,24.55V1133.26h24.7a17.842,17.842,0,1,0,17.7-20.081ZM891.7,1055.157c-2.759,0-7.5-2.211-7.814-3.344.316-1.144,5.055-3.344,7.814-3.344a3.344,3.344,0,0,1,0,6.688Zm-33.473-6.688c2.756,0,7.495,2.2,7.8,3.344-.307,1.133-5.046,3.344-7.8,3.344a3.344,3.344,0,0,1,0-6.688Zm14.5,104.872a20.08,20.08,0,1,1-20.081-20.081h20.081Zm46.864-8.924a13.391,13.391,0,1,1,13.392-13.391,13.4,13.4,0,0,1-13.392,13.391Zm0,0" fill="#3dcbc6"/><path d="M919.589,1122.1a8.923,8.923,0,1,0,8.923,8.924,8.928,8.928,0,0,0-8.923-8.924Zm0,13.392a4.461,4.461,0,1,1,4.455-4.468,4.474,4.474,0,0,1-4.455,4.468Zm0,0" fill="#3dcbc6"/></g></svg>