<svg xmlns="http://www.w3.org/2000/svg" width="85.854" height="115.89" viewBox="0 0 85.854 115.89"><g transform="translate(-1413 -1060)"><path d="M1456.329,1085.525c-8.644,0-15.674,6.645-15.674,14.809s7.03,14.818,15.674,14.818,15.665-6.645,15.665-14.818-7.029-14.809-15.665-14.809Zm0,25.392c-6.176,0-11.193-4.744-11.193-10.583s5.017-10.582,11.193-10.582,11.193,4.752,11.193,10.582-5.025,10.583-11.193,10.583Zm0,0" fill="#3dcbc6"/><path d="M1486.291,1071.887a44.715,44.715,0,0,0-60.721,0c-15,14.188-16.866,40.871-4.033,57.044l34.4,46.959,34.333-46.9c12.89-16.236,11.02-42.919-3.979-57.107Zm.35,54.636-30.7,41.935-30.77-42c-11.633-14.673-9.971-38.774,3.573-51.579a40.057,40.057,0,0,1,54.383,0c13.542,12.805,15.215,36.906,3.518,51.642Zm0,0" fill="#3dcbc6"/></g></svg>