<svg xmlns="http://www.w3.org/2000/svg" xmlns:xlink="http://www.w3.org/1999/xlink" width="38" height="39" viewBox="0 0 38 39"><defs><clipPath id="a"><rect width="38" height="39" transform="translate(1668 509)" fill="none" stroke="#707070" stroke-width="1"/></clipPath></defs><g transform="translate(-1668 -509)" clip-path="url(#a)"><g transform="translate(1.174 0.053)"><path d="M1700.089,537.834h-28.675a.588.588,0,0,1-.588-.588V519.535a.588.588,0,0,1,.588-.588h28.675a.588.588,0,0,1,.588.588v17.711A.588.588,0,0,1,1700.089,537.834ZM1672,536.658h27.5V520.123H1672Z" fill="#999"/><path d="M1685.751,528.979a.587.587,0,0,1-.309-.088l-14.337-8.855a.588.588,0,1,1,.618-1l14.028,8.664,14.029-8.664a.588.588,0,1,1,.618,1l-14.337,8.855A.588.588,0,0,1,1685.751,528.979Z" fill="#999"/></g></g></svg>