<svg xmlns="http://www.w3.org/2000/svg" xmlns:xlink="http://www.w3.org/1999/xlink" width="48" height="39" viewBox="0 0 48 39"><defs><clipPath id="a"><rect width="48" height="39" transform="translate(1662 684)" fill="none" stroke="#707070" stroke-width="1"/></clipPath></defs><g transform="translate(-1662 -684)" clip-path="url(#a)"><path d="M1697.246,722.252a.778.778,0,0,1-.5-.184l-7.8-6.616h-17.288a5.372,5.372,0,0,1-5.351-5.381v-15.36a5.372,5.372,0,0,1,5.351-5.382h27.8a5.373,5.373,0,0,1,5.352,5.382v15.36a5.373,5.373,0,0,1-5.352,5.381h-1.42v6.015a.785.785,0,0,1-.452.712.776.776,0,0,1-.329.073ZM1671.651,690.9a3.8,3.8,0,0,0-3.789,3.81v15.36a3.8,3.8,0,0,0,3.789,3.81h17.574a.781.781,0,0,1,.5.185l6.737,5.711v-5.11a.783.783,0,0,1,.781-.786h2.2a3.8,3.8,0,0,0,3.789-3.81v-15.36a3.8,3.8,0,0,0-3.789-3.81Zm0,0" fill="#999"/></g></svg>