<svg xmlns="http://www.w3.org/2000/svg" width="121.871" height="109.475" viewBox="0 0 121.871 109.475"><g transform="translate(-176 -1066.415)"><path d="M283.419,1103.592a2.064,2.064,0,0,0-2.068,2.068v66.106H180.136V1070.552H281.351v2.055a2.062,2.062,0,1,0,4.123,0v-6.192H176V1175.89H285.474v-70.23a2.061,2.061,0,0,0-2.055-2.068Zm0,0" fill="#3dcbc6"/><path d="M297.267,1075.282a2.056,2.056,0,0,0-2.915,0l-62.574,62.574-27-27a2.069,2.069,0,1,0-2.925,2.926l28.462,28.462a2.053,2.053,0,0,0,2.915,0l64.038-64.038a2.071,2.071,0,0,0,0-2.923Zm0,0" fill="#3dcbc6"/></g></svg>