<svg xmlns="http://www.w3.org/2000/svg" xmlns:xlink="http://www.w3.org/1999/xlink" width="38" height="39" viewBox="0 0 38 39"><defs><clipPath id="a"><rect width="38" height="39" transform="translate(1668 599)" fill="none" stroke="#707070" stroke-width="1"/></clipPath></defs><g transform="translate(-1668 -599)" clip-path="url(#a)"><path d="M1695.758,634.426a13.673,13.673,0,0,1-4.686-1,38.945,38.945,0,0,1-19.919-19.913c-1.323-3.51-1.323-6.391-.005-7.71.189-.188.381-.393.581-.6,1.2-1.265,2.563-2.689,4.363-2.626,1.244.053,2.447.827,3.677,2.36,3.641,4.525,2,6.141.1,8.007l-.335.335c-.308.309-.9,1.748,4.566,7.208a30.09,30.09,0,0,0,4.514,3.877c.765.5,2.135,1.249,2.694.689l.34-.34c1.867-1.9,3.479-3.529,8,.106,1.533,1.233,2.307,2.432,2.354,3.677.073,1.8-1.36,3.164-2.626,4.367-.209.2-.413.392-.6.581a4.176,4.176,0,0,1-3.018.983Zm-19.792-30.777c-1.282,0-2.437,1.213-3.463,2.291-.2.22-.4.429-.6.623-.979.983-.879,3.562.255,6.575a37.932,37.932,0,0,0,19.291,19.29c3.013,1.135,5.592,1.235,6.571.252.2-.194.407-.393.622-.6,1.1-1.046,2.348-2.234,2.3-3.546-.036-.906-.7-1.872-1.956-2.887-3.765-3.029-4.822-1.962-6.569-.189l-.346.345c-.837.837-2.191.654-4.032-.543a31.555,31.555,0,0,1-4.692-4.017c-4.535-4.536-5.984-7.308-4.566-8.731l.344-.335c1.78-1.747,2.851-2.8-.182-6.575-1.015-1.26-1.988-1.92-2.888-1.956Zm0,0" transform="translate(0.84)" fill="#999"/></g></svg>