<svg xmlns="http://www.w3.org/2000/svg" width="46.81" height="51.99" viewBox="0 0 46.81 51.99"><path d="M63.72,760.839a23.374,23.374,0,0,1,8.575-20.408,3.463,3.463,0,0,1,5.667,2.654,3.515,3.515,0,0,1-1.337,2.727,16.5,16.5,0,1,0,20.79-.011,3.5,3.5,0,0,1-1.327-2.716,3.453,3.453,0,0,1,5.593-2.717A23.4,23.4,0,1,1,63.72,760.839ZM87.015,730.01a3.449,3.449,0,0,0-3.45,3.449v15.887a3.449,3.449,0,1,0,6.9,0V733.459a3.449,3.449,0,0,0-3.449-3.449Zm0,0" transform="translate(-63.616 -730.01)" fill="#008075"/></svg>